<svg xmlns="http://www.w3.org/2000/svg" viewBox="0 0 130 130"><rect width="130" height="130" fill="#209cee" rx="13" ry="13"/><path fill="#fff" d="M30.3 101.2q-3.4 0-5.1-1.7-1.7-1.8-1.7-5.7 0-2.7.3-6.5l1.1-10L27.1 62l3.6-23-3-5.9q3.2-2 6.1-3 3-1 5.2-1 3.4 0 5.8 1.2 2.3 1.2 4.1 4.5 1.9 3.2 3.5 9.2T56 59.6L60.8 83h1.1q2-8 5.1-15.7 3.3-7.8 7.4-14.7t9-12.2q4.5-5.4 9.5-8.4t9.6-3q1.2 0 2 .5t1.4 1.5q.4 1 .4 2.8l-.4 3.8-1.1 7.5-1.6 9.9-1.7 10.8-1.5 10.5q-.8 5-1.2 8.8t-.4 5.7q0 2.6.6 4.6t1.7 3.5q-3.9 2.5-7.4 2.5-3.4 0-5-1.8T86.7 94q0-2.7.3-6.4t1-9.5 2-14.2 3.2-20.5h-.6q-4.1 3.6-7.5 8.5-3.4 4.8-6.2 10.4t-4.9 11-3.3 10.3q-1.3 4.7-1.8 8-1.8 1.5-4 2.4-2 .9-4 .9-2.4 0-4-.9-1.8-.9-3.3-3.7t-2.9-8.4-3.4-15l-4.9-23.5h-.6L40.2 54q-1 5.6-1.8 11.3L36.8 76l-1 8.9q-.5 3.8-.5 5.8 0 2.7.5 4.7t1.8 3.4q-1.8 1.2-3.6 1.9t-3.7.6"/></svg>
